<svg xmlns:dc="http://purl.org/dc/elements/1.1/" xmlns:cc="http://creativecommons.org/ns#" xmlns:rdf="http://www.w3.org/1999/02/22-rdf-syntax-ns#" xmlns:svg="http://www.w3.org/2000/svg" xmlns="http://www.w3.org/2000/svg" xmlns:sodipodi="http://sodipodi.sourceforge.net/DTD/sodipodi-0.dtd" xmlns:inkscape="http://www.inkscape.org/namespaces/inkscape" version="1.1" x="0px" y="0px" viewBox="0 0 100 100"><g transform="translate(0,-952.36218)"><path style="text-indent:0;text-transform:none;direction:ltr;block-progression:tb;baseline-shift:baseline;color:#000000;enable-background:accumulate;" d="m 50,960.58094 c -0.30307,-0.001 -0.6173,0.0438 -0.90625,0.125 -0.28982,0.0812 -0.55241,0.19823 -0.8125,0.34375 l -34.5,19.3125 c -0.26618,0.14964 -0.37729,0.44041 -0.59375,0.65625 l 34.875,19.56246 c 1.1275,0.6313 2.7475,0.6313 3.875,0 l 34.875,-19.53121 c -0.22298,-0.22618 -0.34803,-0.53245 -0.625,-0.6875 l -34.46875,-19.3125 c -0.24603,-0.1377 -0.53154,-0.2314 -0.8125,-0.3125 -0.28094,-0.0811 -0.55733,-0.15025 -0.84375,-0.15625 a 1.30013,1.30013 0 0 1 -0.0625,0 z m -0.34375,6.125 c 1.98224,0 3.7742,0.43353 5.1875,1.25 1.4134,0.81647 2.53125,2.14837 2.53125,3.75 0,1.60162 -1.11785,2.90228 -2.53125,3.71875 -1.4133,0.81637 -3.20526,1.25 -5.1875,1.25 -1.98213,0 -3.83669,-0.43363 -5.25,-1.25 -1.4133,-0.81647 -2.5,-2.11713 -2.5,-3.71875 0,-1.60163 1.0867,-2.93353 2.5,-3.75 1.41331,-0.81647 3.26787,-1.25 5.25,-1.25 z m 0,2.5625 c -1.55635,0 -2.9695,0.38314 -3.875,0.90625 -0.90561,0.52311 -1.25,1.08874 -1.25,1.53125 0,0.4425 0.34439,0.97679 1.25,1.5 0.9055,0.52311 2.31865,0.875 3.875,0.875 1.55645,0 2.90689,-0.35189 3.8125,-0.875 0.90561,-0.52321 1.25,-1.0575 1.25,-1.5 0,-0.44251 -0.34439,-1.00814 -1.25,-1.53125 -0.90561,-0.52311 -2.25605,-0.90625 -3.8125,-0.90625 z m -15.375,5.8125 c 1.98224,0 3.80545,0.46478 5.21875,1.28125 1.4134,0.81647 2.53125,2.11712 2.53125,3.71875 0,1.60162 -1.11785,2.90228 -2.53125,3.71875 -1.4133,0.81637 -3.23651,1.25 -5.21875,1.25 -1.98213,0 -3.80544,-0.43363 -5.21875,-1.25 -1.4133,-0.81647 -2.5,-2.11713 -2.5,-3.71875 0,-1.60163 1.0867,-2.90228 2.5,-3.71875 1.41331,-0.81647 3.23662,-1.28125 5.21875,-1.28125 z m 30.53125,0.90625 c 1.98224,0 3.80545,0.43353 5.21875,1.25 1.4134,0.81647 2.53125,2.14837 2.53125,3.75 0,1.60162 -1.11785,2.90228 -2.53125,3.71875 -1.4133,0.81637 -3.23651,1.25 -5.21875,1.25 -1.98213,0 -3.80544,-0.43363 -5.21875,-1.25 -1.4133,-0.81647 -2.5,-2.11713 -2.5,-3.71875 0,-1.60163 1.0867,-2.93353 2.5,-3.75 1.41331,-0.81647 3.23662,-1.25 5.21875,-1.25 z m -30.53125,1.6875 c -1.55635,0 -2.93825,0.35189 -3.84375,0.875 -0.90561,0.52311 -1.25,1.08874 -1.25,1.53125 0,0.4425 0.34439,0.97679 1.25,1.5 0.9055,0.52311 2.2874,0.90625 3.84375,0.90625 1.55645,0 2.93814,-0.38314 3.84375,-0.90625 0.90561,-0.52321 1.21875,-1.0575 1.21875,-1.5 0,-0.44251 -0.31314,-1.00814 -1.21875,-1.53125 -0.90561,-0.52311 -2.2873,-0.875 -3.84375,-0.875 z m 30.53125,0.875 c -1.55635,0 -2.93825,0.38314 -3.84375,0.90625 -0.90561,0.52311 -1.25,1.08874 -1.25,1.53125 0,0.4425 0.34439,0.97679 1.25,1.5 0.9055,0.52311 2.2874,0.875 3.84375,0.875 1.55645,0 2.93814,-0.35189 3.84375,-0.875 0.90561,-0.52321 1.25,-1.0575 1.25,-1.5 0,-0.44251 -0.34439,-1.00814 -1.25,-1.53125 -0.90561,-0.52311 -2.2873,-0.90625 -3.84375,-0.90625 z m -52.71875,4.84375 0,38.40626 c 1.6e-4,1.0933 0.68128,2.2802 1.6875,2.8437 l 34.5,19.3125 c 0.12578,0.07 0.26902,0.1345 0.40625,0.1875 l 0,-40.625 c -0.64531,-0.1328 -1.28744,-0.3585 -1.875,-0.6875 L 12.09375,983.39344 z m 75.8125,0 -34.71875,19.43746 c -0.5967,0.3341 -1.25038,0.5557 -1.90625,0.6875 l 0,40.625 c 0.14712,-0.055 0.30329,-0.1125 0.4375,-0.1875 l 34.46875,-19.3125 c 1.00624,-0.5635 1.71862,-1.7503 1.71875,-2.8437 l 0,-38.40626 z m -38.4375,0.96875 c 1.98224,0 3.7742,0.46478 5.1875,1.28125 1.4134,0.81647 2.53125,2.11712 2.53125,3.71875 0,1.60162 -1.11785,2.90228 -2.53125,3.71875 -1.4133,0.81637 -3.20526,1.28125 -5.1875,1.28125 -1.98213,0 -3.80544,-0.46488 -5.21875,-1.28125 -1.4133,-0.81647 -2.5,-2.11713 -2.5,-3.71875 0,-1.60163 1.0867,-2.90228 2.5,-3.71875 1.41331,-0.81647 3.23662,-1.28125 5.21875,-1.28125 z m 0,2.59375 c -1.55635,0 -2.9695,0.35189 -3.875,0.875 -0.90561,0.52311 -1.21875,1.08874 -1.21875,1.53125 0,0.4425 0.31314,1.00804 1.21875,1.53125 0.9055,0.52311 2.31865,0.875 3.875,0.875 1.55645,0 2.93814,-0.35189 3.84375,-0.875 0.90561,-0.52321 1.21875,-1.08875 1.21875,-1.53125 0,-0.44251 -0.31314,-1.00814 -1.21875,-1.53125 -0.90561,-0.52311 -2.2873,-0.875 -3.84375,-0.875 z m -30.5625,5.4375 c 0.97462,-0.0491 1.97701,0.23302 2.875,0.71875 1.43678,0.77717 2.75889,2.08749 3.75,3.75 0.9911,1.66252 1.49215,3.40631 1.46875,5.00001 -0.02343,1.5936 -0.59902,3.1679 -2.03125,3.9687 -1.43224,0.8008 -3.15696,0.4959 -4.59375,-0.2812 -1.43678,-0.7772 -2.72764,-2.0563 -3.71875,-3.7188 -0.99111,-1.6625 -1.5234,-3.40632 -1.5,-4.99996 0.02343,-1.59364 0.63027,-3.16793 2.0625,-3.96875 0.53709,-0.30031 1.10273,-0.43925 1.6875,-0.46875 z m 0.40625,2.53125 c -0.32599,-0.0366 -0.58339,0.0456 -0.78125,0.15625 -0.39572,0.22126 -0.735,0.76014 -0.75,1.78125 -0.01502,1.0211 0.37806,2.3821 1.15625,3.68751 0.77818,1.3053 1.7669,2.2832 2.6875,2.7812 0.92061,0.498 1.60428,0.5025 2,0.2813 0.39572,-0.2213 0.70375,-0.7914 0.71875,-1.8125 0.01501,-1.0211 -0.31557,-2.35091 -1.09375,-3.65626 -0.77818,-1.30536 -1.8294,-2.28329 -2.75,-2.78125 -0.4603,-0.24898 -0.86151,-0.4009 -1.1875,-0.4375 z m 59.125,0.84375 c 0.78812,-0.0703 1.59638,0.0683 2.3125,0.46875 1.43224,0.80083 2.0391,2.40631 2.0625,4.00001 0.02343,1.5936 -0.47765,3.3374 -1.46875,5 -0.99111,1.6625 -2.31322,2.9728 -3.75,3.75 -1.43679,0.7771 -3.16151,1.0195 -4.59375,0.2187 -1.43223,-0.8008 -2.0391,-2.3751 -2.0625,-3.9687 -0.02343,-1.5937 0.50889,-3.3375 1.5,-5 0.9911,-1.66258 2.28197,-2.94159 3.71875,-3.71876 0.71839,-0.38858 1.49313,-0.6797 2.28125,-0.75 z m 0.1875,2.5625 c -0.32599,0.0366 -0.72719,0.18853 -1.1875,0.4375 -0.9206,0.49796 -1.94057,1.44466 -2.71875,2.74996 -0.77819,1.3054 -1.14,2.6664 -1.125,3.6875 0.01501,1.0211 0.32303,1.56 0.71875,1.7813 0.39573,0.2212 1.0794,0.2479 2,-0.25 0.9206,-0.498 1.94057,-1.5072 2.71875,-2.8125 0.77819,-1.3054 1.14,-2.6352 1.125,-3.6563 -0.01502,-1.02107 -0.35428,-1.55994 -0.75,-1.78121 -0.19786,-0.11065 -0.45526,-0.19285 -0.78125,-0.15625 z m -51.0625,8.53126 c 0.97926,-0.041 1.97701,0.2642 2.875,0.75 1.43678,0.7771 2.72764,2.0562 3.71875,3.7187 0.9911,1.6625 1.5234,3.4376 1.5,5.0313 -0.02344,1.5936 -0.63027,3.1366 -2.0625,3.9375 -1.43224,0.8008 -3.12572,0.5584 -4.5625,-0.2188 -1.43678,-0.7772 -2.75889,-2.1187 -3.75,-3.7812 -0.99111,-1.6626 -1.49215,-3.3752 -1.46875,-4.9688 0.02343,-1.5936 0.59902,-3.1992 2.03125,-4 0.53709,-0.3003 1.1312,-0.4437 1.71875,-0.4687 z m -0.03125,2.5937 c -0.13058,0.023 -0.24485,0.07 -0.34375,0.125 -0.39572,0.2213 -0.735,0.7914 -0.75,1.8125 -0.01501,1.0211 0.34681,2.3509 1.125,3.6563 0.77818,1.3053 1.79815,2.2832 2.71875,2.7812 0.9206,0.498 1.60428,0.5025 2,0.2813 0.39572,-0.2213 0.70375,-0.7602 0.71875,-1.7813 0.01501,-1.0211 -0.34682,-2.4134 -1.125,-3.7187 -0.77818,-1.3054 -1.79815,-2.2521 -2.71875,-2.75 -0.69045,-0.3733 -1.23327,-0.4743 -1.625,-0.4063 z m 37.6875,8.5313 c 0.78416,-0.064 1.56513,0.068 2.28125,0.4687 1.43224,0.8008 2.07035,2.3751 2.09375,3.9688 0.02343,1.5936 -0.50889,3.3374 -1.5,5 -0.99111,1.6625 -2.28197,2.9728 -3.71875,3.75 -1.43679,0.7771 -3.16152,1.0195 -4.59375,0.2187 -1.43224,-0.8008 -2.0391,-2.3751 -2.0625,-3.9687 -0.02343,-1.5937 0.47764,-3.3063 1.46875,-4.9688 0.9911,-1.6625 2.28196,-2.9728 3.71875,-3.75 0.71839,-0.3886 1.52834,-0.6547 2.3125,-0.7187 z m 0.1875,2.5312 c -0.32599,0.037 -0.72719,0.1885 -1.1875,0.4375 -0.9206,0.498 -1.94057,1.4759 -2.71875,2.7813 -0.77819,1.3053 -1.14,2.6351 -1.125,3.6562 0.01501,1.0211 0.32303,1.56 0.71875,1.7813 0.39572,0.2212 1.0794,0.2479 2,-0.25 0.9206,-0.498 1.90931,-1.4759 2.6875,-2.7813 0.77818,-1.3054 1.17125,-2.6664 1.15625,-3.6875 -0.01502,-1.0211 -0.35428,-1.56 -0.75,-1.7812 -0.19786,-0.1103 -0.45526,-0.1933 -0.78125,-0.1563 z m -29.1875,0.875 c 0.97926,-0.041 1.97701,0.233 2.875,0.7188 1.43678,0.7771 2.72764,2.0874 3.71875,3.75 0.9911,1.6625 1.49215,3.3751 1.46875,4.9687 -0.02343,1.5937 -0.59902,3.1992 -2.03125,4 -1.43224,0.8008 -3.15697,0.4959 -4.59375,-0.2812 -1.43679,-0.7772 -2.72764,-2.0563 -3.71875,-3.7188 -0.99111,-1.6625 -1.49215,-3.4064 -1.46875,-5 0.02343,-1.5936 0.59902,-3.1679 2.03125,-3.9687 0.53709,-0.3004 1.1312,-0.4438 1.71875,-0.4688 z m -0.0625,2.5313 c -0.13058,0.023 -0.24485,0.07 -0.34375,0.125 -0.39572,0.2212 -0.735,0.7914 -0.75,1.8125 -0.01501,1.0211 0.37806,2.3821 1.15625,3.6875 0.77818,1.3053 1.79815,2.2833 2.71875,2.7812 0.9206,0.498 1.57302,0.4713 1.96875,0.25 0.39572,-0.2213 0.735,-0.7289 0.75,-1.75 0.01501,-1.0211 -0.34682,-2.4134 -1.125,-3.7187 -0.77818,-1.3054 -1.8294,-2.2833 -2.75,-2.7813 -0.69045,-0.3732 -1.23327,-0.4742 -1.625,-0.4062 z" fill="#000000" fill-opacity="1" stroke="none" marker="none" visibility="visible" display="inline" overflow="visible"/></g></svg>