<svg xmlns:dc="http://purl.org/dc/elements/1.1/" xmlns:cc="http://creativecommons.org/ns#"
  xmlns:rdf="http://www.w3.org/1999/02/22-rdf-syntax-ns#" xmlns:svg="http://www.w3.org/2000/svg"
  xmlns="http://www.w3.org/2000/svg" xmlns:sodipodi="http://sodipodi.sourceforge.net/DTD/sodipodi-0.dtd"
  xmlns:inkscape="http://www.inkscape.org/namespaces/inkscape" xml:space="preserve" version="1.1" style=""
  viewBox="0 0 2822.2222 2822.2222" x="0px" y="0px" fill-rule="evenodd">
  <defs>
    <style type="text/css">
      .str0 {
        stroke: red;
        stroke-width: 101.59;
        stroke-linecap: round;
        stroke-linejoin: round;
        stroke-opacity: 0.501961
      }

      .fil0 {
        fill: none
      }
    </style>
    <style type="text/css">
      .str0 {
        stroke: red;
        stroke-width: 101.59;
        stroke-linecap: round;
        stroke-linejoin: round;
        stroke-opacity: 0.501961
      }

      .fil0 {
        fill: none
      }
    </style>
    <style type="text/css">
      .str0 {
        stroke: red;
        stroke-width: 101.59;
        stroke-linecap: round;
        stroke-linejoin: round;
        stroke-opacity: 0.501961
      }

      .fil0 {
        fill: none
      }
    </style>
    <style type="text/css">
      .str0 {
        stroke: red;
        stroke-width: 101.59;
        stroke-linecap: round;
        stroke-linejoin: round;
        stroke-opacity: 0.501961
      }

      .fil0 {
        fill: none
      }
    </style>
    <style type="text/css">
      .str0 {
        stroke: red;
        stroke-width: 101.59;
        stroke-linecap: round;
        stroke-linejoin: round;
        stroke-opacity: 0.501961
      }

      .fil0 {
        fill: none
      }
    </style>
    <style type="text/css">
      .str0 {
        stroke: red;
        stroke-width: 101.59;
        stroke-linecap: round;
        stroke-linejoin: round;
        stroke-opacity: 0.501961
      }

      .fil0 {
        fill: none
      }
    </style>
    <style type="text/css">
      .str0 {
        stroke: red;
        stroke-width: 101.59;
        stroke-linecap: round;
        stroke-linejoin: round;
        stroke-opacity: 0.501961
      }

      .fil0 {
        fill: none
      }
    </style>
    <style type="text/css">
      .str0 {
        stroke: red;
        stroke-width: 101.59;
        stroke-linecap: round;
        stroke-linejoin: round;
        stroke-opacity: 0.501961
      }

      .fil0 {
        fill: none
      }
    </style>
    <style type="text/css">
      .str0 {
        stroke: red;
        stroke-width: 101.59;
        stroke-linecap: round;
        stroke-linejoin: round;
        stroke-opacity: 0.501961
      }

      .fil0 {
        fill: none
      }
    </style>
    <style type="text/css">
      .str0 {
        stroke: red;
        stroke-width: 101.59;
        stroke-linecap: round;
        stroke-linejoin: round;
        stroke-opacity: 0.501961
      }

      .fil0 {
        fill: none
      }
    </style>
    <style type="text/css">
      .str0 {
        stroke: red;
        stroke-width: 101.59;
        stroke-linecap: round;
        stroke-linejoin: round;
        stroke-opacity: 0.501961
      }

      .fil0 {
        fill: none
      }
    </style>
    <style type="text/css">
      .str0 {
        stroke: red;
        stroke-width: 101.59;
        stroke-linecap: round;
        stroke-linejoin: round;
        stroke-opacity: 0.501961
      }

      .fil0 {
        fill: none
      }
    </style>
    <style type="text/css">
      .str0 {
        stroke: red;
        stroke-width: 101.59;
        stroke-linecap: round;
        stroke-linejoin: round;
        stroke-opacity: 0.501961
      }

      .fil0 {
        fill: none
      }
    </style>
    <style type="text/css">
      .str0 {
        stroke: red;
        stroke-width: 101.59;
        stroke-linecap: round;
        stroke-linejoin: round;
        stroke-opacity: 0.501961
      }

      .fil0 {
        fill: none
      }
    </style>
    <style type="text/css">
      .str0 {
        stroke: red;
        stroke-width: 101.59;
        stroke-linecap: round;
        stroke-linejoin: round;
        stroke-opacity: 0.501961
      }

      .fil0 {
        fill: none
      }
    </style>
    <style type="text/css">
      .str0 {
        stroke: red;
        stroke-width: 101.59;
        stroke-linecap: round;
        stroke-linejoin: round;
        stroke-opacity: 0.501961
      }

      .fil0 {
        fill: none
      }
    </style>
    <style type="text/css">
      .str0 {
        stroke: red;
        stroke-width: 101.59;
        stroke-linecap: round;
        stroke-linejoin: round;
        stroke-opacity: 0.501961
      }

      .fil0 {
        fill: none
      }
    </style>
    <style type="text/css">
      .str0 {
        stroke: red;
        stroke-width: 101.59;
        stroke-linecap: round;
        stroke-linejoin: round;
        stroke-opacity: 0.501961
      }

      .fil0 {
        fill: none
      }
    </style>
    <style type="text/css">
      .str0 {
        stroke: red;
        stroke-width: 101.59;
        stroke-linecap: round;
        stroke-linejoin: round;
        stroke-opacity: 0.501961
      }

      .fil0 {
        fill: none
      }
    </style>
    <style type="text/css">
      .str0 {
        stroke: red;
        stroke-width: 101.59;
        stroke-linecap: round;
        stroke-linejoin: round;
        stroke-opacity: 0.501961
      }

      .fil0 {
        fill: none
      }
    </style>
    <style type="text/css">
      .str0 {
        stroke: red;
        stroke-width: 101.59;
        stroke-linecap: round;
        stroke-linejoin: round;
        stroke-opacity: 0.501961
      }

      .fil0 {
        fill: none
      }
    </style>
    <style type="text/css">
      .str0 {
        stroke: red;
        stroke-width: 101.59;
        stroke-linecap: round;
        stroke-linejoin: round;
        stroke-opacity: 0.501961
      }

      .fil0 {
        fill: none
      }
    </style>
    <style type="text/css">
      .str0 {
        stroke: red;
        stroke-width: 101.59;
        stroke-linecap: round;
        stroke-linejoin: round;
        stroke-opacity: 0.501961
      }

      .fil0 {
        fill: none
      }
    </style>
    <style type="text/css">
      .str0 {
        stroke: red;
        stroke-width: 101.59;
        stroke-linecap: round;
        stroke-linejoin: round;
        stroke-opacity: 0.501961
      }

      .fil0 {
        fill: none
      }
    </style>
    <style type="text/css">
      .str0 {
        stroke: red;
        stroke-width: 101.59;
        stroke-linecap: round;
        stroke-linejoin: round;
        stroke-opacity: 0.501961
      }

      .fil0 {
        fill: none
      }
    </style>
    <style type="text/css">
      .str0 {
        stroke: red;
        stroke-width: 101.59;
        stroke-linecap: round;
        stroke-linejoin: round;
        stroke-opacity: 0.501961
      }

      .fil0 {
        fill: none
      }
    </style>
    <style type="text/css">
      .str0 {
        stroke: red;
        stroke-width: 101.59;
        stroke-linecap: round;
        stroke-linejoin: round;
        stroke-opacity: 0.501961
      }

      .fil0 {
        fill: none
      }
    </style>
    <style type="text/css">
      .str0 {
        stroke: red;
        stroke-width: 101.59;
        stroke-linecap: round;
        stroke-linejoin: round;
        stroke-opacity: 0.501961
      }

      .fil0 {
        fill: none
      }
    </style>
    <style type="text/css">
      .str0 {
        stroke: red;
        stroke-width: 101.59;
        stroke-linecap: round;
        stroke-linejoin: round;
        stroke-opacity: 0.501961
      }

      .fil0 {
        fill: none
      }
    </style>
    <style type="text/css">
      .str0 {
        stroke: red;
        stroke-width: 101.59;
        stroke-linecap: round;
        stroke-linejoin: round;
        stroke-opacity: 0.501961
      }

      .fil0 {
        fill: none
      }
    </style>
    <style type="text/css">
      .str0 {
        stroke: red;
        stroke-width: 101.59;
        stroke-linecap: round;
        stroke-linejoin: round;
        stroke-opacity: 0.501961
      }

      .fil0 {
        fill: none
      }
    </style>
    <style type="text/css">
      .str0 {
        stroke: red;
        stroke-width: 101.59;
        stroke-linecap: round;
        stroke-linejoin: round;
        stroke-opacity: 0.501961
      }

      .fil0 {
        fill: none
      }
    </style>
    <style type="text/css">
      .str0 {
        stroke: red;
        stroke-width: 101.59;
        stroke-linecap: round;
        stroke-linejoin: round;
        stroke-opacity: 0.501961
      }

      .fil0 {
        fill: none
      }
    </style>
    <style type="text/css">
      .str0 {
        stroke: red;
        stroke-width: 101.59;
        stroke-linecap: round;
        stroke-linejoin: round;
        stroke-opacity: 0.501961
      }

      .fil0 {
        fill: none
      }
    </style>
    <style type="text/css">
      .str0 {
        stroke: red;
        stroke-width: 101.59;
        stroke-linecap: round;
        stroke-linejoin: round;
        stroke-opacity: 0.501961
      }

      .fil0 {
        fill: none
      }
    </style>
    <style type="text/css">
      .str0 {
        stroke: red;
        stroke-width: 101.59;
        stroke-linecap: round;
        stroke-linejoin: round;
        stroke-opacity: 0.501961
      }

      .fil0 {
        fill: none
      }
    </style>
    <style type="text/css">
      .str0 {
        stroke: red;
        stroke-width: 101.59;
        stroke-linecap: round;
        stroke-linejoin: round;
        stroke-opacity: 0.501961
      }

      .fil0 {
        fill: none
      }
    </style>
    <style type="text/css">
      .str0 {
        stroke: red;
        stroke-width: 101.59;
        stroke-linecap: round;
        stroke-linejoin: round;
        stroke-opacity: 0.501961
      }

      .fil0 {
        fill: none
      }
    </style>
    <style type="text/css">
      .str0 {
        stroke: red;
        stroke-width: 101.59;
        stroke-linecap: round;
        stroke-linejoin: round;
        stroke-opacity: 0.501961
      }

      .fil0 {
        fill: none
      }
    </style>
    <style type="text/css">
      .str0 {
        stroke: red;
        stroke-width: 101.59;
        stroke-linecap: round;
        stroke-linejoin: round;
        stroke-opacity: 0.501961
      }

      .fil0 {
        fill: none
      }
    </style>
    <style type="text/css">
      .str0 {
        stroke: red;
        stroke-width: 101.59;
        stroke-linecap: round;
        stroke-linejoin: round;
        stroke-opacity: 0.501961
      }

      .fil0 {
        fill: none
      }
    </style>
    <style type="text/css">
      .str0 {
        stroke: red;
        stroke-width: 101.59;
        stroke-linecap: round;
        stroke-linejoin: round;
        stroke-opacity: 0.501961
      }

      .fil0 {
        fill: none
      }
    </style>
    <style type="text/css">
      .str0 {
        stroke: red;
        stroke-width: 101.59;
        stroke-linecap: round;
        stroke-linejoin: round;
        stroke-opacity: 0.501961
      }

      .fil0 {
        fill: none
      }
    </style>
    <style type="text/css">
      .str0 {
        stroke: red;
        stroke-width: 101.59;
        stroke-linecap: round;
        stroke-linejoin: round;
        stroke-opacity: 0.501961
      }

      .fil0 {
        fill: none
      }
    </style>
    <style type="text/css">
      .str0 {
        stroke: red;
        stroke-width: 101.59;
        stroke-linecap: round;
        stroke-linejoin: round;
        stroke-opacity: 0.501961
      }

      .fil0 {
        fill: none
      }
    </style>
  </defs>
  <g transform="matrix(1.8145773,0,0,1.7916662,-582.85646,-1792.2899)" style="" fill="white">
    <g transform="matrix(-0.47726013,0.27906984,-0.27554627,-0.48336314,2235.2701,1953.0027)">
      <path
        d="m 2469.1044,333.13429 c 103.0131,59.47465 136.3947,194.20646 76.59,297.7913 l -453.3105,785.15681 c -0.5531,1.038 -1.1415,2.0572 -1.7639,3.0551 l -46.3011,80.196 c -0.8006,1.5726 -1.6841,3.1029 -2.6458,4.5825 l -122.1469,211.5648 179.3319,-104.2085 c 82.9507,-47.7775 170.6493,-42.4945 235.4614,-5.6085 29.4595,16.7673 54.2988,39.9459 71.7993,67.9306 28.0008,44.7756 37.2763,102.068 20.2064,157.292 -17.0697,55.2242 -59.6861,105.4716 -127.0954,142.514 l -970.1251,533.6185 c -1.5804,1.1814 -3.2301,2.2703 -4.9376,3.2595 l -1.2047,0.3228 c -1.0685,0.7669 -2.1669,1.4913 -3.2917,2.173 -0.4002,0.1123 -0.8019,0.22 -1.2047,0.3228 -0.9354,0.4991 -1.8858,0.9695 -2.8507,1.409 -0.6571,-0.027 -1.3134,-0.066 -1.9688,-0.1183 -0.9351,0.4993 -1.8857,0.9695 -2.8506,1.4092 -0.6569,-0.027 -1.3136,-0.066 -1.9689,-0.1182 -1.1922,0.3672 -2.3984,0.6901 -3.6145,0.9683 -0.6571,-0.027 -1.3135,-0.066 -1.9688,-0.1183 -0.7978,0.2348 -1.6012,0.4501 -2.4097,0.6454 -0.6569,-0.027 -1.3136,-0.066 -1.9686,-0.1185 -1.3149,-0.028 -2.629,-0.1067 -3.9376,-0.2365 -0.657,-0.027 -1.3133,-0.066 -1.9688,-0.1184 -0.9158,-0.1614 -1.8268,-0.3478 -2.7326,-0.5592 -0.6568,-0.027 -1.3133,-0.066 -1.9688,-0.1184 -0.9156,-0.1616 -1.8271,-0.3479 -2.7324,-0.5594 -0.5141,-0.2853 -1.0234,-0.5794 -1.5278,-0.8821 -1.1771,-0.2919 -2.3437,-0.6255 -3.4966,-1.0004 -0.5143,-0.2854 -1.0237,-0.5795 -1.5277,-0.8821 -1.177,-0.2916 -2.3436,-0.6253 -3.4966,-1.0003 -0.5142,-0.2853 -1.0235,-0.5794 -1.5276,-0.882 -0.2547,-0.147 -0.5092,-0.2939 -0.7639,-0.441 -1.3048,-0.6783 -2.5795,-1.4142 -3.8194,-2.2051 L 328.25002,1964.8173 c -77.74683,-44.8871 -104.67799,-146.8212 -59.18279,-225.6212 l 545.9129,-945.54886 c 0.55311,-1.03801 1.14151,-2.05715 1.76385,-3.05507 l 17.1976,-29.78712 c 0.80056,-1.57261 1.68411,-3.10296 2.64575,-4.58257 l 90.39755,-156.57315 c 60.009,-103.93864 193.83762,-141.65978 296.18962,-82.56683 38.271,22.0958 67.326,54.63836 85.3689,92.05904 67.3151,-73.13322 178.5959,-94.44981 267.3533,-43.20571 36.0261,20.79969 63.0223,50.86396 81.0217,85.47558 l 3.9686,-6.87393 c 59.8047,-103.58479 193.1769,-142.04134 296.1898,-82.56679 36.0839,20.83305 63.7878,51.23442 81.7855,85.91662 l 134.0529,-232.18648 c 59.8043,-103.58448 193.1765,-142.04094 296.1892,-82.56654 z m -50.7108,87.83371 c -53.8392,-31.08405 -124.7933,-11.42478 -157.6312,45.45204 l -227.0962,393.34221 -274.2793,475.06565 c -14.0258,25.0481 -51.3498,33.1043 -74.465,16.0725 -1.4396,-1.0624 -2.823,-2.2014 -4.1425,-3.4097 -1.1692,-0.9389 -2.2969,-1.93 -3.3785,-2.9689 -1.309,-1.3222 -2.5453,-2.7161 -3.7014,-4.1737 -11.6416,-16.1204 -12.5311,-39.2762 -2.1603,-56.2389 l 274.2793,-475.0657 c 32.8378,-56.87678 14.3864,-128.1545 -39.453,-159.23865 -53.8394,-31.0842 -124.0295,-10.98383 -156.8673,45.89305 l -274.2794,475.0657 c -9.7856,18.0877 -31.3854,28.9935 -51.7531,26.1301 -3.5907,-0.6202 -7.1142,-1.6283 -10.4896,-3.0009 -1.3048,-0.6783 -2.5796,-1.4143 -3.8195,-2.2052 -1.7064,-0.5384 -3.3842,-1.1672 -5.0243,-1.8825 -1.4396,-1.0625 -2.823,-2.2014 -4.1424,-3.4099 -1.1693,-0.9391 -2.2969,-1.93 -3.3786,-2.9687 -1.4396,-1.0626 -2.823,-2.2015 -4.1425,-3.41 -1.0367,-1.1976 -2.0171,-2.4438 -2.9375,-3.7328 -12.0565,-16.0512 -13.2651,-39.4763 -2.9242,-56.6798 l 177.2674,-307.03612 c 32.8377,-56.87673 15.1502,-127.71341 -38.6892,-158.7976 -53.8394,-31.0842 -124.7934,-11.42472 -157.6312,45.45201 l -177.2673,307.03611 c -9.7854,18.0878 -31.3856,28.9935 -51.7531,26.1302 -3.3159,-0.5291 -6.579,-1.3882 -9.7258,-2.5601 -1.5729,-0.8007 -3.1035,-1.6844 -4.5833,-2.6461 -1.7063,-0.5384 -3.3842,-1.1672 -5.0243,-1.8825 -1.1693,-0.9391 -2.2969,-1.9299 -3.3785,-2.9689 -1.4396,-1.0625 -2.823,-2.2014 -4.1425,-3.4098 -1.4397,-1.0625 -2.823,-2.2014 -4.1425,-3.4099 -1.0367,-1.1976 -2.0172,-2.4437 -2.9374,-3.7328 -11.6417,-16.12022 -12.5312,-39.27622 -2.1603,-56.23882 L 1212.68,764.59673 c 32.6335,-56.52297 13.6224,-128.59552 -40.217,-159.67972 -52.5638,-30.3477 -124.9977,-11.07086 -157.6312,45.45202 l -91.27947,158.10064 c -0.55398,1.03752 -1.14238,2.05666 -1.76385,3.05508 l -17.1976,29.78712 c -0.80056,1.57261 -1.68411,3.10296 -2.64575,4.58257 l -545.031,944.02136 c -18.12695,31.3968 -6.71162,70.4655 22.04596,87.0687 l 919.72661,531.0044 950.9345,-523.3133 c 49.8245,-27.3794 71.9982,-57.802 80.124,-84.0907 8.1259,-26.2886 3.9296,-50.8592 -9.8549,-72.9015 -27.5689,-44.0847 -89.723,-74.3726 -170.2188,-28.009 l -312.3761,181.1679 c -76.7807,28.1227 -101.8649,-47.5009 -68.6748,-106.8612 l 183.4408,-317.7289 c 1.2438,-2.6679 2.7211,-5.2266 4.4097,-7.6377 l 46.3011,-80.1959 c 0.6782,-1.3046 1.4141,-2.5793 2.2048,-3.8189 l 452.8696,-784.39306 c 32.8378,-56.87682 14.3867,-128.15429 -39.453,-159.23864 z"
        style="text-indent:0;text-transform:none;direction:ltr;block-progression:tb;baseline-shift:baseline;color:#000000;enable-background:accumulate;"
        fill="#white" fill-opacity="1" fill-rule="evenodd" stroke="none" marker="none" visibility="visible"
        display="inline" overflow="visible" />
    </g>
  </g>
</svg>